<svg id="Camada_1" data-name="Camada 1" xmlns="http://www.w3.org/2000/svg" viewBox="0 0 493.72 700.19"><defs><style>.cls-1{fill:#042e40;}.cls-2{fill:#4294d0;}.cls-3{fill:#ef7c35;}.cls-4{fill:#ee7263;}.cls-5{fill:#fdebe4;}.cls-6{fill:#1d2141;}.cls-7{fill:#fff;}.cls-8{fill:#2f7ea9;}.cls-9{fill:#f7c2b0;}.cls-10{fill:#e85c0d;}.cls-11{fill:#da3b3b;}.cls-12{fill:#f3965f;}</style></defs><path class="cls-1" d="M502.76,822.43C489.14,709.89,393.3,622.69,277.09,622.69S65,709.89,51.42,822.43Z" transform="translate(-51.42 -122.24)"/><path class="cls-2" d="M325.47,617.33c.92-3,2.08-5.85,2.75-8.91,1.58-7.24,1.71-14.33-1.71-21.15.9-.41,1.8-.85,2.71-1.25a9.44,9.44,0,0,1,11,2.25,13.36,13.36,0,0,1,4,11.22c-.32,3.33-.6,6.66-1,10a131.15,131.15,0,0,0-.7,21,50.22,50.22,0,0,1-.28,5.33,6,6,0,0,1-.74,2.54c-1.42,2.61-3.67,3.19-6,1.45-3.13-2.29-4.73-5.54-5.58-9.22a83.27,83.27,0,0,0-2.78-10.3A8.89,8.89,0,0,0,325.47,617.33Z" transform="translate(-51.42 -122.24)"/><path class="cls-2" d="M405,290.41a22.9,22.9,0,0,0-9-5.2,30.84,30.84,0,0,0-21.36.57c-10.63,4.38-18,14.41-28.16,19.76-10,5.22-22.17,5.71-31.29,12.29-5.42,3.91-9.51,9.82-15.75,12.18-4.19,1.59-8.86,1.36-13.28.62C274,328.6,261.65,322,257,310.52c-3.18-7.81-2.49-17-7-24.18-2.82-4.5-7.52-7.81-9.36-12.8-2.61-7.05,1.33-14.63,2.76-22A31.7,31.7,0,0,0,238,226.84a28.76,28.76,0,0,0-22.28-11.59s-6.26-.67-15.85,4.61C188,228.08,184,244.42,186.5,258.65s10.36,26.88,18.24,39,16.09,24.44,19.5,38.48c.54,2.26.95,4.7.07,6.85-1,2.41-3.33,3.92-5.39,5.51-18.21,14.07-18.95,41.44-32.47,60.05-4.39,6-10.06,11-14.46,17.06-5.36,7.33-8.39,16.75-4.26,25.38a21.35,21.35,0,0,0,18.91,12c.32,0,.64,0,1,0,3.25-.21,6.41-1.19,9.66-1.24a34.26,34.26,0,0,1,9.59,1.68c12.76,3.52,25.54,7.05,37.84,11.94,12.84,5.11,25.16,11.72,38.5,15.34s28.36,3.94,40.25-3.11c10.25-6.08,17.05-17.17,19.15-28.9s-.21-24-5.16-34.83c-3.59-7.87-8.55-15.13-11.18-23.36s-2.46-18.13,3.38-24.5c3.35-3.64,8.05-5.64,12.36-8.07A61.81,61.81,0,0,0,358.75,354c2.55-3,4.83-6.29,7.79-8.9,5.5-4.85,12.82-7,19.27-10.46a50.63,50.63,0,0,0,18.74-17.59c4.5-7.18,8.06-15.94,2.89-23.75A19,19,0,0,0,405,290.41Z" transform="translate(-51.42 -122.24)"/><path class="cls-3" d="M325.47,617.33c-.54.83-1.12,1.64-1.63,2.5a24,24,0,0,1-27.54,11,23,23,0,0,1-6.51-2.5c-3.73-2.42-7.34-1.84-11.08-.32-3.64.94-7.27,1.92-10.92,2.81a1.88,1.88,0,0,0-1.6,2.14c.11,5.5-1.75,10.41-4.47,15.07a1,1,0,0,0-.28.18c-7.84,11.76-24.14,10-32.92,1.83-2.68-2.5-5.14-5.24-7.74-7.85-1.88-1.9-3.75-3.81-5.73-5.6A61.46,61.46,0,0,0,199.73,626a213.49,213.49,0,0,1-29.8-16.46,68,68,0,0,1-17.78-17.44c-7.05-10.08-8.43-21.1-5.49-32.84a63.78,63.78,0,0,1,9.51-20.49c3.9-5.7,7.71-11.48,11.93-16.93a202.41,202.41,0,0,0,21.65-35.62c3.76-7.72,7.68-15.33,12-22.73.4-.67.7-1.39,1-2.09a66.15,66.15,0,0,0,6.8-12.58c1.88-4.28,3.6-8.64,6.74-12.21,1,.76,1.92,1.51,2.87,2.28,7.21,5.91,15.09,10.67,24,13.36,12.56,3.79,25.25,7.09,38.39,8.24,1.41.12,2.93,0,4.09,1.1a6.37,6.37,0,0,0,0,1.31c1.73,9.55,3.55,19.09,4.37,28.78.51,13.32-3,25.81-8,38-1.9,4.63-4.24,9.07-6.24,13.67a28.13,28.13,0,0,0-2.19,16,70.41,70.41,0,0,1,.12,23.62c-.35,1.93-.14,1.94,1.93,1.86A86.35,86.35,0,0,0,301.57,580a28.83,28.83,0,0,1,7.89-1.36c6.67-.41,11.91,2.16,15.94,7.41a16.06,16.06,0,0,0,1.11,1.22c3.42,6.82,3.29,13.91,1.71,21.15C327.55,611.48,326.39,614.36,325.47,617.33ZM216.25,549.11c-2.31,2.23-4,3.86-5.65,5.44s-3.34,2.94-4.92,4.51c-2.69,2.65-2.66,5.74-.05,8.34,2.37,2.34,4.72,4.71,7.09,7.05,2.2,2.17,2.63,2.08,3.79-.73a3.55,3.55,0,0,0,.33-1.59A139.11,139.11,0,0,1,216.25,549.11Z" transform="translate(-51.42 -122.24)"/><path class="cls-4" d="M302.85,315.9a2.92,2.92,0,0,0-2.09-2.3,1.38,1.38,0,0,0-.7,0,1.6,1.6,0,0,0-.77.73,13.16,13.16,0,0,1-2.41,3.4c-1.1.87-3,.92-3.66-.33-.14-.28-.26-.65-.57-.71a.8.8,0,0,0-.64.29,67.73,67.73,0,0,1-13.44,9.4c-.17.09-.37.22-.38.42s.14.31.25.45c.61.73.29,1.83-.08,2.71-1.09,2.56-2.76,5.3-5.49,5.85a3,3,0,0,0-1.23.37,2.08,2.08,0,0,0-.67,1.12,13.37,13.37,0,0,0,3.67,13.32,8.81,8.81,0,0,0,7.08,2.61,9.38,9.38,0,0,0,4.49-2c3.36-2.64,8.22-7.67,5.2-10.48-5-4.62-1.68-15.68,4.29-18.69a9.6,9.6,0,0,1,2.31-.61,6.39,6.39,0,0,0,4.63-3.14A3.7,3.7,0,0,0,302.85,315.9Z" transform="translate(-51.42 -122.24)"/><path class="cls-2" d="M261.72,648.05c2.72-4.66,4.58-9.57,4.47-15.07a1.88,1.88,0,0,1,1.6-2.14c3.65-.89,7.28-1.87,10.92-2.81,3.34,2.58,4.16,6.25,4,10.14a110.16,110.16,0,0,1-1.32,11.25,89.86,89.86,0,0,0-.49,12.3c0,2.66.2,5.33.25,8a8.08,8.08,0,0,1-1.38,5.06,3.52,3.52,0,0,1-5.24.93,12.58,12.58,0,0,1-5.17-8.31c-1.25-6.54-3.21-12.71-7.31-18.06A3.22,3.22,0,0,1,261.72,648.05Z" transform="translate(-51.42 -122.24)"/><path class="cls-5" d="M305.05,376.82a6.88,6.88,0,0,0-.08-7.54A29.54,29.54,0,0,1,300.89,356a83,83,0,0,1,.24-10c.13-3.31-1.09-4.68-4.4-5-1.76-.18-3.54-.19-5.32-.28a13.67,13.67,0,0,1-5.94,11,7.81,7.81,0,0,1-9.1.17c-5.54-3.58-7.41-11.3-4.82-15.84-3.84-1.64-5.92-1.13-8.52,2.54a100.64,100.64,0,0,1-17,18.24l-.08.06q-.48.38-.93.78l-1.05.88a.75.75,0,0,1,0,.16,8.72,8.72,0,0,0-2.25,5c-.74,11.54,1.87,24.06-4,34-2.83,4.8-7.33,8.34-11.56,12s-8.43,7.66-10.34,12.9c-1.53,4.21-1.1,9.38,1.57,12.8a17.2,17.2,0,0,0,.28,2.23l1.57,1.25c7.21,5.91,15.09,10.67,24,13.36,12.56,3.79,25.25,7.09,38.39,8.24,1.41.12,2.93,0,4.08,1.1a10.13,10.13,0,0,0,5-5.63,36.81,36.81,0,0,0,2.78-16.64,143.89,143.89,0,0,1,.16-27,82.77,82.77,0,0,1,3.63-18.26A109.4,109.4,0,0,1,305.05,376.82ZM227,422.59c-.69.53-1.45,1.06-2.23,1.61a49.3,49.3,0,0,1,5.14-4.06A36.22,36.22,0,0,1,227,422.59Z" transform="translate(-51.42 -122.24)"/><path class="cls-4" d="M297.9,313.21c-2.33,10.6-9.57,18.07-16.15,16.58-9.4-2.14-10.05-11.22-7.72-21.82s9.56-18,16.15-16.58S300.23,302.61,297.9,313.21Z" transform="translate(-51.42 -122.24)"/><path class="cls-6" d="M281.88,296.33c-2.44-.79-4.88-1.56-7.3-2.37-11.79-4-19.81-11.55-21.76-24.19-1.41-9.12.91-17.31,8.37-23.38a16.28,16.28,0,0,1,14-3.73c10.72,2.21,13.5,11,12.42,18.37a44.34,44.34,0,0,1-3.08,10.21,4.43,4.43,0,0,0-.53,2.54c1.16,7,3.73,13.05,10.39,16.61a20.35,20.35,0,0,1,4.88,3.47,6.22,6.22,0,0,1,1.94,6.08,9.56,9.56,0,0,0,.12,4.57c.77,3.19-.53,6.13-1.59,9.05a15.1,15.1,0,0,1-2.84,4.05c-1.56,1.34-2.66,1.21-3.9-.46a7.6,7.6,0,0,1-1.44-5.65,16.09,16.09,0,0,1,3.53-8.1c1.67-2.11,1.62-2.31-.86-3.52C290.35,298,286.08,297.26,281.88,296.33Z" transform="translate(-51.42 -122.24)"/><path class="cls-4" d="M304.1,318.18c-2,3.91-5.32,6.2-7.49,5.11s-2.31-5.14-.34-9.05,5.32-6.21,7.48-5.12S306.07,314.27,304.1,318.18Z" transform="translate(-51.42 -122.24)"/><path class="cls-4" d="M277.26,309.18c.53,3.9-.81,7.29-3,7.58s-4.36-2.62-4.89-6.52.82-7.29,3-7.58S276.74,305.29,277.26,309.18Z" transform="translate(-51.42 -122.24)"/><path class="cls-7" d="M286.35,317.39a4.62,4.62,0,0,1-8.75-2.89Z" transform="translate(-51.42 -122.24)"/><path class="cls-4" d="M415.74,282.7c-1.09-1.45-7.08,3.74-7.08,3.74s7.37-7.26,6.74-8.5c-1-1.95-9.24,6.44-9.24,6.44s8.75-9.36,6.8-10.77-9.56,8.85-9.56,8.85,6.56-10.08,4.69-11-9.83,12.42-9.83,12.42-1.17-7.77-2.77-7.63c-2.69.23-.9,16.83-.9,16.83l7.06,5.82S416.82,284.14,415.74,282.7Z" transform="translate(-51.42 -122.24)"/><path class="cls-4" d="M192.75,207c1.34-1.22,6.27,5,6.27,5s-5.91-8.5-5.07-9.6c1.34-1.74,7.91,8,7.91,8s-6.88-10.81-4.71-11.83S204.92,209,204.92,209s-4.6-11.11-2.59-11.66,7.39,14,7.39,14,2.57-7.42,4.12-7c2.6.72-2.21,16.71-2.21,16.71l-8,4.42S191.42,208.18,192.75,207Z" transform="translate(-51.42 -122.24)"/><path class="cls-8" d="M391.52,294.38c3.47,3.63,7,6.26,12.09,6.85,2.59.3,2.57-3.76,0-4.06-3.95-.46-6.59-2.91-9.21-5.66-1.81-1.9-4.68,1-2.88,2.87Z" transform="translate(-51.42 -122.24)"/><path class="cls-8" d="M215.78,220.07a18.68,18.68,0,0,0-16,7.63c-1.58,2.08,2,4.11,3.51,2.05a14.5,14.5,0,0,1,12.48-5.62c2.61.13,2.6-3.93,0-4.06Z" transform="translate(-51.42 -122.24)"/><path class="cls-8" d="M267.27,329.25a68.53,68.53,0,0,1-33.1,31.67c-11.88,5.36-27.32,10.37-29.17,25.41-.16,1.3,1.87,1.29,2,0,2.08-16.92,23.12-20.14,35.21-27.27A70.05,70.05,0,0,0,269,330.27c.59-1.16-1.16-2.19-1.75-1Z" transform="translate(-51.42 -122.24)"/><path class="cls-8" d="M204.9,392.64a42.81,42.81,0,0,1-4.14,9.82,1,1,0,0,0,1.75,1,44.87,44.87,0,0,0,4.35-10.3,1,1,0,0,0-2-.54Z" transform="translate(-51.42 -122.24)"/><path class="cls-8" d="M300.63,336.85c1.91,6-.36,11.92-.31,18A34.89,34.89,0,0,0,303.45,368c3.68,8.86,9.51,17.44,8.32,27.46-.15,1.29,1.88,1.28,2,0,1.13-9.47-3.83-17.76-7.56-26.08-2.25-5-4.1-10.29-3.85-15.88.26-5.85,2-11.38.2-17.15-.39-1.25-2.35-.72-2,.54Z" transform="translate(-51.42 -122.24)"/><path class="cls-8" d="M313.85,407.05a18.17,18.17,0,0,0,1,7.7c.44,1.22,2.4.7,2-.54a16.76,16.76,0,0,1-.93-7.16c.11-1.3-1.92-1.3-2,0Z" transform="translate(-51.42 -122.24)"/><path class="cls-8" d="M296.18,486.53c10.28-.17,21.78-6,25.47-16,4.19-11.36-.53-23.1-5-33.59-.5-1.2-2.25-.17-1.75,1,3.93,9.3,8.15,19.52,5.47,29.75-2.74,10.43-13.86,16.64-24.23,16.82a1,1,0,0,0,0,2Z" transform="translate(-51.42 -122.24)"/><path class="cls-8" d="M197,416.31c-7.71,5.51-13.91,14.21-14.89,23.85-.42,4.09.62,8.63,4.29,11,4.51,2.93,10.28-.67,14.6,2.38,1.07.75,2.08-1,1-1.76-2.44-1.72-5-1.58-7.86-1.4s-5.77.3-7.88-1.95-2.47-5.81-2-8.83c1.24-8.71,6.74-16.5,13.78-21.55,1.06-.75.05-2.51-1-1.75Z" transform="translate(-51.42 -122.24)"/><path class="cls-8" d="M225.34,344.41a71,71,0,0,0,30.14-46.25c.23-1.28-1.72-1.83-1.95-.54a69.07,69.07,0,0,1-29.21,45c-1.08.72-.06,2.48,1,1.75Z" transform="translate(-51.42 -122.24)"/><path class="cls-8" d="M316.55,315.61a79.21,79.21,0,0,0,1.93,35.4c2.42,8.64,5.33,18.46,13.69,23.13,1.15.64,2.17-1.12,1-1.75-8.26-4.61-10.91-14.91-13.18-23.43a75.9,75.9,0,0,1-1.51-32.81c.23-1.28-1.73-1.83-2-.54Z" transform="translate(-51.42 -122.24)"/><path class="cls-9" d="M264.52,340.52a17.17,17.17,0,0,0,10.67,18.53c8.53,3.27,14.45-1.43,18.44-8.63.63-1.14-1.12-2.17-1.75-1-1.49,2.69-3.06,5.65-5.77,7.3-3.38,2.06-7.8,1.64-11.25,0-6.26-3-9.17-9.52-8.31-16.19.16-1.29-1.87-1.28-2,0Z" transform="translate(-51.42 -122.24)"/><path class="cls-9" d="M218,436.69c-2.23-6.68,6.78-10.3,11.08-13.45a89.27,89.27,0,0,0,10.22-8.7,91.13,91.13,0,0,0,16.49-22.41c.6-1.16-1.15-2.19-1.76-1a89.06,89.06,0,0,1-21,26.46c-4,3.42-8.5,6-12.66,9.15-3.4,2.59-5.77,6.17-4.32,10.52.41,1.23,2.38.7,2-.54Z" transform="translate(-51.42 -122.24)"/><path class="cls-9" d="M257.72,379a9.18,9.18,0,0,1-1.62,5.44c-.73,1.09,1,2.11,1.75,1a11.12,11.12,0,0,0,1.9-6.47,1,1,0,0,0-2,0Z" transform="translate(-51.42 -122.24)"/><path class="cls-5" d="M274,456.48c10.18,22.23,4.17,47.24-7.84,67.42-2.11,3.55-6.1,7.51-6.29,11.83-.2,4.77,2.22,10.11,2.95,14.83,1.81,11.72.6,24.49-8.32,33.15a1,1,0,0,0,.45,1.7,11.38,11.38,0,0,1,8,12.15,1,1,0,0,0,1.53.87A31.68,31.68,0,0,1,298,599.57a1,1,0,0,0,1.23-.16,24.62,24.62,0,0,1,28.38-2.54,1,1,0,0,0,1-1.76,26.53,26.53,0,0,0-16.34-3.51,27,27,0,0,0-7.34,1.88c-2.3.95-5.23,4-7.46,3.34-2.71-.78-5.2-2.68-8-3.47a34.39,34.39,0,0,0-8.67-1.25,33.62,33.62,0,0,0-17.34,4.58l1.53.88a13.39,13.39,0,0,0-9.53-14.11l.45,1.7c7.56-7.35,10.16-17.88,9.6-28.17-.33-6.14-1.85-12-3.09-18-.85-4.11.71-6.58,2.84-9.85q2.52-3.88,4.75-7.94c11-20.11,15.56-44.28,5.71-65.76-.54-1.19-2.29-.16-1.75,1Z" transform="translate(-51.42 -122.24)"/><path class="cls-10" d="M217.08,548.05c-5.16-6-10.36-12.39-9.45-20.81.14-1.3-1.9-1.29-2,0-1,8.91,4.57,15.89,10.06,22.25.85,1,2.28-.45,1.43-1.44Z" transform="translate(-51.42 -122.24)"/><path class="cls-10" d="M216.14,548.38c-2.18,18.6-3.47,37.69,8.24,53.56.77,1,2.53,0,1.76-1-11.51-15.59-10.11-34.3-8-52.53.16-1.29-1.88-1.28-2,0Z" transform="translate(-51.42 -122.24)"/><path class="cls-10" d="M236.35,614.69c2.87,3.32,5.84,6.72,9.68,8.95,4.08,2.37,8.87,3.54,13.36,4.84,4.11,1.19,8.49,2.77,12.83,2s12.07-5.32,16.17-2.11c1,.79,2.47-.64,1.44-1.44-2.78-2.17-5.85-1.57-9.11-.88-5.69,1.21-10,3.29-16,1.79a115.29,115.29,0,0,1-14.31-4.39c-5.31-2.11-9-6-12.65-10.23-.85-1-2.28.45-1.43,1.44Z" transform="translate(-51.42 -122.24)"/><path class="cls-10" d="M207.81,538.3a126,126,0,0,1-21.52,21.6,1,1,0,0,0-.16,1.23,38.69,38.69,0,0,1,3.1,27.91,1,1,0,0,0,2,.54,40.82,40.82,0,0,0,1.26-14.26c-.43-4.6-2.28-8.44-3.37-12.81-.45-1.8-.68-1.37.82-2.91.8-.81,1.8-1.49,2.66-2.23,1.93-1.67,3.81-3.39,5.62-5.18a125.63,125.63,0,0,0,11.06-12.45c.8-1-.63-2.47-1.43-1.44Z" transform="translate(-51.42 -122.24)"/><path class="cls-10" d="M191.25,591.89c30.93,4.5,37.6,54.27,72.15,49,1.29-.19.74-2.15-.54-2-18.1,2.76-30.29-13.65-40-26.19-8-10.32-17.46-20.84-31.07-22.82-1.28-.19-1.83,1.77-.54,2Z" transform="translate(-51.42 -122.24)"/><path class="cls-10" d="M234.34,448.72c-4.46-9.08-14.07-19.35-24.92-19.82-5-.21-8.77,2.51-12.52,5.39-2.25,1.73-4.62,3.66-7.47,4.24-4.31.89-8.6-1.35-12.32-3.21-2.33-1.17-4.39,2.33-2.05,3.5,4.75,2.38,10,4.85,15.45,3.63,4.53-1,7.77-4.42,11.47-6.93,11.34-7.72,24.1,5.57,28.85,15.25,1.15,2.35,4.65.29,3.51-2Z" transform="translate(-51.42 -122.24)"/><path class="cls-10" d="M251.58,452a8.24,8.24,0,0,0-12.41.13c-4.82,5.3-5.94,12.91-9.52,18.92-1.89,3.19-4.72,6.41-8.44,7.38-4,1-7.75-1.25-11.62-1.78a12.78,12.78,0,0,0-13.08,6.87c-1.22,2.31,2.28,4.36,3.51,2.05a8.71,8.71,0,0,1,7.09-5c3.37-.27,6.55,1.53,9.85,2a14.05,14.05,0,0,0,11.28-3.54c3.68-3.13,5.87-7.39,7.69-11.79,1.6-3.85,6.46-19.11,12.78-12.42,1.8,1.91,4.66-1,2.87-2.87Z" transform="translate(-51.42 -122.24)"/><path class="cls-5" d="M266.11,454.43c9.17,20.7,5.67,44.81-7.94,62.66-3.07,4-5.74,8-5.86,13.27-.13,6.22,1.51,12.55,1.83,18.78.65,12.52-1.34,25.62-10.25,35.06a2,2,0,0,0,.9,3.39,16.21,16.21,0,0,1,11.45,16.56c-.15,2.61,3.91,2.6,4.06,0a20.27,20.27,0,0,0-14.43-20.48c.3,1.14.59,2.27.89,3.4,8.32-8.8,11.45-20.67,11.57-32.55.07-7.19-1.19-14.16-1.81-21.28-.65-7.45,3.48-11.5,7.43-17.17,12.89-18.48,14.73-43.23,5.67-63.69-1.06-2.39-4.56-.32-3.51,2.05Z" transform="translate(-51.42 -122.24)"/><path class="cls-5" d="M260.61,606.4A40.74,40.74,0,0,1,300.93,613c2,1.66,4.88-1.2,2.87-2.87a44.8,44.8,0,0,0-44.27-7.63c-2.42.92-1.37,4.85,1.08,3.92Z" transform="translate(-51.42 -122.24)"/><path class="cls-5" d="M305.34,611.75c1.2-3.61,5.61-4.47,8.93-5a37,37,0,0,1,15.07.24c2.53.65,3.62-3.26,1.08-3.91a41.56,41.56,0,0,0-19.24.12c-4.33,1-8.28,3-9.76,7.48-.83,2.48,3.09,3.55,3.92,1.08Z" transform="translate(-51.42 -122.24)"/><path class="cls-5" d="M335.58,587.59c2.74,3.49,2.69,7.91,2.58,12.14-.12,4.57-.3,9.14-.45,13.71q-.21,6.45-.43,12.9c-.12,3.84.85,10.31-2.26,13.13-1,.88.47,2.32,1.44,1.44,2.59-2.35,2.55-5.66,2.67-8.93.22-6.18.41-12.36.61-18.54.18-5.6.6-11.24.49-16.84-.08-3.86-.8-7.36-3.22-10.45-.8-1-2.23.42-1.43,1.44Z" transform="translate(-51.42 -122.24)"/><path class="cls-5" d="M276.1,629.54c3.52,7.54,1.38,15.59.61,23.47-.73,7.49,1.91,16.26-2.92,22.75-.78,1,1,2.06,1.76,1,5.11-6.87,2.42-15.86,3.2-23.77.82-8.34,2.82-16.55-.89-24.5-.56-1.18-2.31-.15-1.76,1Z" transform="translate(-51.42 -122.24)"/><path class="cls-1" d="M444.9,141a14.14,14.14,0,0,1-11.69-6.05l-.94-1.32a10.49,10.49,0,0,0-17.12,0l-.74,1.05a14.31,14.31,0,0,1-23.37,0L390,133.14a10.5,10.5,0,0,0-17.12,0l-.55.78A14.16,14.16,0,0,1,360.61,140h0a14.16,14.16,0,0,1-11.68-6.05l-.42-.59a10.49,10.49,0,0,0-17.12,0l-2.13,3-3.13-2.21,2.13-3a14.32,14.32,0,0,1,23.37,0l.42.59a10.48,10.48,0,0,0,17.12,0l.55-.78a14.32,14.32,0,0,1,23.38,0l1.06,1.51a10.49,10.49,0,0,0,17.12,0l.75-1.05a14.13,14.13,0,0,1,11.68-6h0a14.16,14.16,0,0,1,11.68,6l.94,1.32a10.49,10.49,0,0,0,17.12,0l1.71-2.42a14.33,14.33,0,0,1,23.38,0,10.49,10.49,0,0,0,17.12,0l1.42-2a14.31,14.31,0,0,1,23.37,0l2.75,3.87a10.49,10.49,0,0,0,17.12,0l1.68-2.37,3.12,2.22-1.68,2.37a14.32,14.32,0,0,1-23.37,0l-2.75-3.88a10.49,10.49,0,0,0-17.12,0l-1.42,2a14.32,14.32,0,0,1-23.37,0,10.49,10.49,0,0,0-17.12,0l-1.71,2.41A14.14,14.14,0,0,1,444.9,141Z" transform="translate(-51.42 -122.24)"/><path class="cls-1" d="M444.9,159.7a14.14,14.14,0,0,1-11.69-6l-.94-1.32a10.49,10.49,0,0,0-17.12,0l-.74,1a14.31,14.31,0,0,1-23.37,0l-1.07-1.5a10.49,10.49,0,0,0-17.12,0l-.55.77a14.16,14.16,0,0,1-11.69,6h0a14.16,14.16,0,0,1-11.68-6l-.42-.59a10.49,10.49,0,0,0-17.12,0l-2.13,3-3.13-2.22,2.13-3a14.31,14.31,0,0,1,23.37,0l.42.59a10.49,10.49,0,0,0,17.12,0l.55-.78a14.33,14.33,0,0,1,23.38,0l1.06,1.51a10.49,10.49,0,0,0,17.12,0l.75-1a14.16,14.16,0,0,1,11.68-6.05h0a14.16,14.16,0,0,1,11.68,6.05l.94,1.32a10.49,10.49,0,0,0,17.12,0l1.71-2.42a14.33,14.33,0,0,1,23.38,0,10.49,10.49,0,0,0,17.12,0l1.42-2a14.31,14.31,0,0,1,23.37,0l2.75,3.88a10.5,10.5,0,0,0,17.12,0l1.68-2.38,3.12,2.22-1.68,2.37a14.32,14.32,0,0,1-23.37,0l-2.75-3.88a10.49,10.49,0,0,0-17.12,0l-1.42,2a14.32,14.32,0,0,1-23.37,0,10.49,10.49,0,0,0-17.12,0l-1.71,2.41A14.14,14.14,0,0,1,444.9,159.7Z" transform="translate(-51.42 -122.24)"/><rect class="cls-11" x="402.95" y="591.85" width="18.19" height="3.47" transform="translate(-232.96 883.39) rotate(-90)"/><rect class="cls-11" x="402.95" y="568.26" width="18.19" height="3.47" transform="translate(-209.37 859.8) rotate(-90)"/><rect class="cls-11" x="402.95" y="544.66" width="18.19" height="3.47" transform="translate(-185.78 836.2) rotate(-90)"/><rect class="cls-11" x="402.95" y="521.07" width="18.19" height="3.47" transform="translate(-162.18 812.61) rotate(-90)"/><rect class="cls-11" x="402.95" y="497.48" width="18.19" height="3.47" transform="translate(-138.59 789.02) rotate(-90)"/><rect class="cls-11" x="402.95" y="473.88" width="18.19" height="3.47" transform="translate(-115 765.42) rotate(-90)"/><rect class="cls-11" x="402.95" y="450.29" width="18.19" height="3.47" transform="translate(-91.4 741.83) rotate(-90)"/><rect class="cls-11" x="402.95" y="426.7" width="18.19" height="3.47" transform="translate(-67.81 718.23) rotate(-90)"/><rect class="cls-11" x="421.23" y="591.85" width="18.19" height="3.47" transform="translate(-214.68 901.67) rotate(-90)"/><rect class="cls-11" x="421.23" y="568.26" width="18.19" height="3.47" transform="translate(-191.09 878.08) rotate(-90)"/><rect class="cls-11" x="421.23" y="544.66" width="18.19" height="3.47" transform="translate(-167.49 854.49) rotate(-90)"/><rect class="cls-11" x="421.23" y="521.07" width="18.19" height="3.47" transform="translate(-143.9 830.89) rotate(-90)"/><rect class="cls-11" x="421.23" y="497.48" width="18.19" height="3.47" transform="translate(-120.31 807.3) rotate(-90)"/><rect class="cls-11" x="421.23" y="473.88" width="18.19" height="3.47" transform="translate(-96.71 783.7) rotate(-90)"/><rect class="cls-11" x="421.23" y="450.29" width="18.19" height="3.47" transform="translate(-73.12 760.11) rotate(-90)"/><rect class="cls-11" x="421.23" y="426.7" width="18.19" height="3.47" transform="translate(-49.53 736.52) rotate(-90)"/><rect class="cls-11" x="438.34" y="591.85" width="18.19" height="3.47" transform="translate(-197.57 918.78) rotate(-90)"/><rect class="cls-11" x="438.34" y="568.26" width="18.19" height="3.47" transform="translate(-173.98 895.19) rotate(-90)"/><rect class="cls-11" x="438.34" y="544.66" width="18.19" height="3.47" transform="translate(-150.38 871.6) rotate(-90)"/><rect class="cls-11" x="438.34" y="521.07" width="18.19" height="3.47" transform="translate(-126.79 848) rotate(-90)"/><rect class="cls-11" x="438.34" y="497.48" width="18.19" height="3.47" transform="translate(-103.2 824.41) rotate(-90)"/><rect class="cls-11" x="438.34" y="473.88" width="18.19" height="3.47" transform="translate(-79.6 800.81) rotate(-90)"/><rect class="cls-11" x="438.34" y="450.29" width="18.19" height="3.47" transform="translate(-56.01 777.22) rotate(-90)"/><rect class="cls-11" x="438.34" y="426.7" width="18.19" height="3.47" transform="translate(-32.42 753.63) rotate(-90)"/><circle class="cls-12" cx="488.88" cy="224.74" r="26.92" transform="translate(59.72 485.68) rotate(-70.1)"/><path class="cls-11" d="M480.48,225.14a6.88,6.88,0,1,1,6.88-6.88A6.88,6.88,0,0,1,480.48,225.14Zm0-13a6.09,6.09,0,1,0,6.09,6.09A6.1,6.1,0,0,0,480.48,212.17Z" transform="translate(-51.42 -122.24)"/><path class="cls-11" d="M480.48,231.54a13.28,13.28,0,0,1,0-26.56v.79A12.5,12.5,0,1,0,493,218.26h.79A13.3,13.3,0,0,1,480.48,231.54Z" transform="translate(-51.42 -122.24)"/><path class="cls-11" d="M480.48,240.19a22,22,0,0,1-21.92-21.93h.78a21.15,21.15,0,1,0,28.49-19.83l.27-.74a21.93,21.93,0,0,1-7.62,42.5Z" transform="translate(-51.42 -122.24)"/><path class="cls-11" d="M480.48,245.73a27.44,27.44,0,1,1,22.35-11.48l-.64-.46a26.69,26.69,0,1,0-21.71,11.15Z" transform="translate(-51.42 -122.24)"/></svg>